<svg id="Livello_1" data-name="Livello 1" xmlns="http://www.w3.org/2000/svg" viewBox="0 0 169.77 48.2"><defs><style>.cls-1{fill:#1d1d1b;}</style></defs><path class="cls-1" d="M22.9,23.54a7.87,7.87,0,0,1-1,0l.32-1.8a4.94,4.94,0,0,1,1,.22c1-5.11,1.76-10.77,3.16-16.16C22.36,8,16.1,7.59,16.1,12.16c0,2,1.58,2.95,3.78,2.95l-.25,1.95c-3.42-.11-5.4-2-5.4-4.61,0-5.9,8.53-5.83,12.56-8.17.32-1.12.68-2.2,1.08-3.28L30,1.44A5.29,5.29,0,0,1,28.27,4.6c-1.59,6-2.13,11.81-3.21,17.57,8-2.92,8-22,16-22a2.86,2.86,0,0,1,3,3.2H42.45V3.2a1.66,1.66,0,0,0-1.59-1.87c-5.72,0-5.57,18.93-15.47,21.78,5.76,4.57,5.9,20.08,12.63,20.08,2.48,0,3.56-1.62,4-3.56.61.14,1.19.36,1.8.5-.72,2.45-2.27,4.25-5.47,4.25-9.65,0-9.47-15.84-13.57-20.66C22.87,33,19.92,41.18,10.16,41.18c-7,0-10-5-10-10.08,0-5.55,3.56-11.45,10.15-11.45,4.14,0,6.48,3.24,6.48,6.88a8.85,8.85,0,0,1-1.62,5.07l-1.69-1a8.26,8.26,0,0,0,1.47-4.5c0-2.88-1.94-5.22-4.79-5.22C5.08,20.87,2,26.2,2,31.24c0,4.54,2.52,8.86,8.39,8.86C18,40.1,21,32.54,22.9,23.54Z" transform="translate(-0.12 -0.18)"/><path class="cls-1" d="M42.2,16.37h1.62c-.9,4.43-1.69,8.57-2.12,12a12.22,12.22,0,0,0-.15,1.8c0,.83.15,1.3.43,1.3.83,0,2.34-2.52,4.18-7.34a1.1,1.1,0,0,1,.65.36c-2.52,6.08-3.82,8.49-5.33,8.49-1,0-1.48-1.29-1.48-3.71l.18-1.72c-1,2.88-2.41,5.43-4.35,5.43-1.55,0-2.23-1.62-2.23-4.17,0-5,2.62-12.64,5.86-12.64,1.44,0,2.06,1.15,2.24,2.77ZM35.4,28.76c0,1.51.32,2.55,1.08,2.55,1.94,0,4.5-7.3,4.5-10.87,0-1.73-.47-2.88-1.44-2.88C37.56,17.56,35.4,24.76,35.4,28.76Z" transform="translate(-0.12 -0.18)"/><path class="cls-1" d="M50.48,31.35c1,0,2.38-2.59,4.18-7.27.14,0,.64.18.64.36-1.9,5-3.13,8.49-5.43,8.49-1.33,0-1.91-.9-1.91-2.37,0-2.45,1.69-5.08,1.69-7.35a9.3,9.3,0,0,0-1.26-4c-.47,1.87-1,3.78-1.58,5.26,0,0-.65-.11-.65-.36a44.9,44.9,0,0,0,1.62-6.3,5.31,5.31,0,0,1-.36-2.2,16.84,16.84,0,0,1,.65-4.25l1.69.47a26.11,26.11,0,0,1-.65,5l-.21.72c.9,1.41,2.55,2.92,2.55,5.33,0,2.66-1.69,5.58-1.69,7.45C49.76,31,50.05,31.35,50.48,31.35Z" transform="translate(-0.12 -0.18)"/><path class="cls-1" d="M62.65,16.37h1.62c-.9,4.43-1.69,8.57-2.13,12a13.51,13.51,0,0,0-.14,1.8c0,.83.14,1.3.43,1.3.83,0,2.34-2.52,4.18-7.34a1.1,1.1,0,0,1,.64.36c-2.52,6.08-3.81,8.49-5.32,8.49-1,0-1.48-1.29-1.48-3.71l.18-1.72c-1,2.88-2.41,5.43-4.35,5.43-1.55,0-2.24-1.62-2.24-4.17,0-5,2.63-12.64,5.87-12.64,1.44,0,2.05,1.15,2.23,2.77ZM55.84,28.76c0,1.51.33,2.55,1.08,2.55,1.95,0,4.5-7.3,4.5-10.87,0-1.73-.46-2.88-1.44-2.88C58,17.56,55.84,24.76,55.84,28.76Z" transform="translate(-0.12 -0.18)"/><path class="cls-1" d="M64.77,32.75A44.8,44.8,0,0,1,66,27.1c.72-3.89,1.47-8.06,1.9-10.76h1.91c-.07.65-.39,2.34-.75,4.25,1.15-2.6,2.19-4.54,4-4.54,1.12,0,1.58,1,1.58,2.38A16.68,16.68,0,0,1,74.35,21c1.15-2.74,2.41-4.76,4.42-4.76,1,0,1.84.72,1.84,2.31,0,3-2.52,8.67-2.52,11.62,0,1,.36,1.26.86,1.26,1.23,0,2.67-3.16,4.25-7.3a1.11,1.11,0,0,1,.65.39l-.4,1.05c-1.4,3.74-3.09,7.41-5.25,7.41-1.33,0-2-1-2-2.77,0-3.71,2.52-9,2.52-11.27,0-.86-.29-1.36-.83-1.36-1.18,0-3,2.77-4.17,7.84-.54,3-1.19,6-1.51,7.38h-2c.86-4,2.59-12.2,2.59-13.75,0-.68-.11-1.33-.65-1.33-1.19,0-2.81,3.46-4,8l-1.36,7.05Z" transform="translate(-0.12 -0.18)"/><path class="cls-1" d="M92.74,24.08c.18,0,.65.25.65.36C92.2,27.75,90.08,33,86.77,33c-2.77,0-3.85-2.66-3.85-5.86,0-4.9,2.52-11,6-11a2,2,0,0,1,2,2.23c0,2.84-3.27,6.08-6,6.58A13.94,13.94,0,0,0,84.75,27c0,2.41.69,4.32,2.49,4.32C89.57,31.31,91.48,27.43,92.74,24.08ZM85,24c3-1.4,4.39-3.92,4.39-5.62,0-.86-.25-1.29-.72-1.29C87.16,17.06,85.65,20.62,85,24Z" transform="translate(-0.12 -0.18)"/><path class="cls-1" d="M99.65,24.08c.18,0,.62.18.62.36C98.11,30.27,96.63,33,94.65,33c-1.65,0-2.12-2.23-2.12-5.79a66.68,66.68,0,0,1,1.11-9.43C95.19,9.1,97.35,4.21,99.19,4.21c1.11,0,1.4,1.15,1.4,2.63,0,5.14-3.13,12.34-6,16.66a46.87,46.87,0,0,0-.36,4.9c0,2.08.4,3,1.08,3C96.49,31.42,97.89,28.68,99.65,24.08Zm-.39-18.5c-1.19,0-3.35,8.81-4.43,16.09,1.44-2.74,4.86-9.8,4.86-14.94C99.69,6.19,99.69,5.58,99.26,5.58Z" transform="translate(-0.12 -0.18)"/><path class="cls-1" d="M106.57,24.08c.18,0,.61.18.61.36C105,30.27,103.54,33,101.56,33c-1.65,0-2.12-2.23-2.12-5.79a65.42,65.42,0,0,1,1.12-9.43c1.54-8.68,3.7-13.57,5.54-13.57,1.11,0,1.4,1.15,1.4,2.63,0,5.14-3.13,12.34-6,16.66a44.29,44.29,0,0,0-.36,4.9c0,2.08.39,3,1.07,3C103.4,31.42,104.8,28.68,106.57,24.08Zm-.4-18.5c-1.19,0-3.35,8.81-4.43,16.09,1.44-2.74,4.86-9.8,4.86-14.94C106.6,6.19,106.6,5.58,106.17,5.58Z" transform="translate(-0.12 -0.18)"/><path class="cls-1" d="M142.89,20.37c3.16-8.1,5.72-16.34,9.28-19.44l1.62.76c-2.55,11.8-4.32,23-4.32,31.17,0,8.5,1.91,13.89,6.81,13.89,2.7,0,4.25-1.58,5.25-4.1l1.87.65c-1.33,3.35-3.6,5.07-6.69,5.07-7,0-9.4-6-9.4-15.33,0-.72,0-1.51,0-2.3a10.42,10.42,0,0,0-3.56-8.28c-3.64,9.68-8.5,18.72-18.22,18.72-8.89,0-13.1-6.56-13.1-13.4,0-7.48,5-15.29,14.44-15.29,4.82,0,7.63,2.55,8.71,5.76A14.33,14.33,0,0,1,142.89,20.37Zm-9.18-2.05a7,7,0,0,0-7-4.83c-7.92,0-12.27,7.42-12.27,14.4,0,6.27,3.52,12.21,11.23,12.21,8.2,0,12.92-9,16.7-18.58a12.5,12.5,0,0,0-6.48-1.87,9.24,9.24,0,0,1,.18,1.73,10,10,0,0,1-6.66,9.68c-.21-.58-.5-1.15-.72-1.73,3.56-1.15,5.4-4.68,5.4-8.06a7.21,7.21,0,0,0-.14-1.48c-4.9.44-9.58,3.24-10.66,8-.61-.18-1.22-.39-1.87-.57C122.73,21.85,128.09,18.71,133.71,18.32ZM150.63,4.68c-2.34,4.32-4.14,10.47-6.41,16.59a9.9,9.9,0,0,1,3.42,5.26A201.09,201.09,0,0,1,151.53,3.2,9.12,9.12,0,0,0,150.63,4.68Z" transform="translate(-0.12 -0.18)"/><path class="cls-1" d="M158.19,31.35c1,0,2.41-2.59,4.18-7.27.17,0,.64.18.64.36-1.87,5-3.09,8.42-5.65,8.42-1.15,0-1.69-.83-1.69-2.27,0-2.3,1.73-5.11,1.73-7.38a8.14,8.14,0,0,0-1.3-3.92A97.64,97.64,0,0,1,151.89,33l-.68-.32A102.43,102.43,0,0,0,155.38,18a12.1,12.1,0,0,1,.15-6.4c.54.11,1.11.21,1.65.28a30.56,30.56,0,0,1-.68,5.66c.93,1.4,2.66,2.95,2.66,5.36,0,2.66-1.69,5.58-1.69,7.45C157.47,31,157.76,31.35,158.19,31.35Z" transform="translate(-0.12 -0.18)"/><path class="cls-1" d="M163.52,16.34C165,9,166,8,167.37,8c1,0,1.4.9,1.4,2.37a19.87,19.87,0,0,1-1.47,6h1.29l-.21,1.15h-1.51c-.76,1.94-1.73,4-2.7,6a44.29,44.29,0,0,0-.36,4.9c0,2.08.39,3,1.08,3,1.22,0,2.62-2.74,4.39-7.34.18,0,.61.18.61.36v.07c-2.16,5.76-3.64,8.49-5.62,8.49-1.65,0-2.12-2.23-2.12-5.79a65.42,65.42,0,0,1,1.12-9.43c0-.11,0-.18,0-.29h-1.37l.22-1.15ZM166,17.49h-.9l-.54,3.6Zm1.37-8.13c-.68,0-1.33,2.59-2.09,7h1.15a20,20,0,0,0,1.44-6.08C167.87,9.72,167.8,9.36,167.37,9.36Z" transform="translate(-0.12 -0.18)"/></svg>