<svg id="logo-karamell" xmlns="http://www.w3.org/2000/svg" viewBox="0 0 89.6 24.47"><defs><style>.cls-1{fill:#1d1d1b;}</style></defs><path class="cls-1" d="M11.31,12.35a4.52,4.52,0,0,1-.52,0l.27-1.51a5.44,5.44,0,0,1,.54.15c.43-2.31.75-4.81,1.31-7.15-2,.79-4.41.92-4.41,2.64,0,.89.77,1.17,1.73,1.17l-.17,1.52C8.07,9.15,7,8,7,6.73a3,3,0,0,1,1.69-2.5A36.86,36.86,0,0,1,13.2,2.7c.2-.67.41-1.31.66-1.93l1.61.29a3.18,3.18,0,0,1-1,1.87c-.72,2.94-.88,5.5-1.39,8.31C16.53,9.42,16.22,0,20.83,0a1.67,1.67,0,0,1,1.89,1.73c0,.07,0,.16,0,.23H21.39V1.87c0-.47-.25-.93-.76-.93C17.9.94,18.31,10.12,13.38,12c3.42,3.15,2.37,11.11,5.36,11.11,1.14,0,1.66-.63,2.07-1.67l1.39.5a3.62,3.62,0,0,1-3.55,2.27c-4.66,0-4.1-8.84-5.85-11.76-.92,4.27-2.47,8.48-7.45,8.48A4.94,4.94,0,0,1,0,15.77c0-2.88,2-5.9,5.46-5.9a3.37,3.37,0,0,1,3.45,3.67,5.78,5.78,0,0,1-.86,2.93l-1.44-.81a4.94,4.94,0,0,0,.75-2.46,2,2,0,0,0-2-2.29c-2.31,0-3.78,2.56-3.78,4.95C1.55,18,2.72,20,5.49,20,8.77,20,10.41,16.28,11.31,12.35Z"/><path class="cls-1" d="M21.1,8.46h1.28c-.54,2.4-.89,4.34-1.14,6.12a2.93,2.93,0,0,0,0,.47c0,.27.05.4.14.4s.95-.87,1.82-3.1c.11,0,.5.15.5.25-1.1,2.88-2,4.14-2.81,4.14-.57,0-.9-.52-.9-1.76v-.2c-.41,1.1-1,2-2.09,2-.88,0-1.24-1-1.24-2.28,0-2.54,1.39-6.29,3.1-6.29.67,0,1,.4,1.17,1.21Zm-3,5.91c0,.56.11.93.38.93.83,0,1.86-2.93,1.86-4.61,0-.66-.17-1.13-.56-1.13C19.06,9.56,18.14,12.73,18.14,14.37Z"/><path class="cls-1" d="M25.67,15.38c.39,0,1-1,1.82-3,.09,0,.5.13.5.24h0c-.79,2.06-1.42,4.14-2.9,4.14-.84,0-1.17-.54-1.17-1.35,0-1.17.83-2.44.83-3.36a2.77,2.77,0,0,0-.36-1.34l-.72,1.91s-.5-.09-.5-.23v0a18.08,18.08,0,0,0,.73-2.63,3.53,3.53,0,0,1-.32-1.51A8,8,0,0,1,24,6l1.35.39a11.8,11.8,0,0,1-.5,3,3.58,3.58,0,0,1,1.37,2.36c0,1.15-.83,2.65-.83,3.28C25.38,15.27,25.49,15.38,25.67,15.38Z"/><path class="cls-1" d="M31.66,8.46h1.28c-.54,2.4-.88,4.34-1.13,6.12a2.21,2.21,0,0,0,0,.47c0,.27.06.4.15.4s.95-.87,1.81-3.1c.11,0,.51.15.51.25-1.1,2.88-2,4.14-2.81,4.14-.58,0-.9-.52-.9-1.76v-.2c-.42,1.1-1.05,2-2.09,2-.88,0-1.24-1-1.24-2.28,0-2.54,1.38-6.29,3.09-6.29.67,0,1.05.4,1.17,1.21Zm-2.95,5.91c0,.56.11.93.38.93.83,0,1.85-2.93,1.85-4.61,0-.66-.16-1.13-.56-1.13C29.63,9.56,28.71,12.73,28.71,14.37Z"/><path class="cls-1" d="M32.83,16.65a13.58,13.58,0,0,1,.67-3c.36-2,.66-3.86.88-5.23h1.55l-.24,1.35c.54-.91,1.21-1.54,2-1.54s1,.55,1,1.24a4.14,4.14,0,0,1,0,.45,2.88,2.88,0,0,1,2.25-1.69c.63,0,1,.41,1,1.27,0,1.68-1.17,3.82-1.17,5.3,0,.52.2.61.36.61.47,0,1.06-1,1.85-3.08.11,0,.51.15.51.25-.8,2.06-1.61,4.14-3.08,4.14-.63,0-1.23-.5-1.23-1.6,0-1.94,1.17-3.94,1.17-5.24,0-.2-.09-.36-.28-.36-.45,0-1.27.87-1.88,3.51-.27,1.46-.57,2.94-.74,3.6H35.77c.43-2,1.26-5.83,1.26-6.6,0-.29-.09-.38-.24-.38-.57,0-1.33,1.4-1.82,4l-.57,3Z"/><path class="cls-1" d="M48.08,12.35c.11,0,.5.15.5.25-.9,2.36-1.8,4.23-3.56,4.23-1.57,0-2.22-1.44-2.22-3.13,0-2.45,1.35-5.44,3.37-5.44a1.32,1.32,0,0,1,1.35,1.48,3.65,3.65,0,0,1-3.2,3.35v.27c0,1.08.3,1.94,1.13,1.94C46.51,15.3,47.39,14.19,48.08,12.35Zm-3.71.06a3.32,3.32,0,0,0,1.94-2.58c0-.27-.1-.45-.28-.45C45.29,9.38,44.59,10.91,44.37,12.41Z"/><path class="cls-1" d="M52.15,12.35c.09,0,.43.15.43.24h0c-1.06,2.88-1.89,4.23-3.06,4.23S48,15.77,48,13.9a31.8,31.8,0,0,1,.58-5.1c.81-4.51,2-6.55,3-6.55s1.21.76,1.21,1.67a10.55,10.55,0,0,1-.54,2.9,15.49,15.49,0,0,1-2.67,5,18.39,18.39,0,0,0-.14,2.05c0,1.21.27,1.59.68,1.59C50.69,15.47,51.37,14.35,52.15,12.35ZM51.8,3.46c-.48,0-1.54,3.89-2.07,7.23C50.63,9.06,52,6.05,52,3.85,52,3.6,51.89,3.46,51.8,3.46Z"/><path class="cls-1" d="M56.21,12.35c.09,0,.44.15.44.24h0c-1.07,2.88-1.89,4.23-3.06,4.23s-1.52-1.06-1.52-2.93a31.8,31.8,0,0,1,.58-5.1c.81-4.51,1.94-6.55,3-6.55s1.2.76,1.2,1.67a10.55,10.55,0,0,1-.54,2.9,15.32,15.32,0,0,1-2.66,5,18.39,18.39,0,0,0-.14,2.05c0,1.21.27,1.59.68,1.59C54.76,15.47,55.44,14.35,56.21,12.35Zm-.34-8.89c-.48,0-1.55,3.89-2.07,7.23.9-1.63,2.23-4.64,2.25-6.84C56.05,3.6,56,3.46,55.87,3.46Z"/><path class="cls-1" d="M75,10.12c1.55-3.93,2.91-7.89,4.89-9.38l1.25.56a91.2,91.2,0,0,0-2,15.48c0,3.8.75,6.28,2.77,6.28A2.2,2.2,0,0,0,84,21.39l1.53.54a3.5,3.5,0,0,1-3.35,2.54c-3.54,0-4.8-2.95-4.8-7.6,0-.45,0-.92,0-1.39a4.84,4.84,0,0,0-1.67-3.67c-1.8,4.72-4.22,9.11-9.13,9.11-4.45,0-6.56-3.33-6.56-6.82,0-3.8,2.51-7.76,7.23-7.76a4.55,4.55,0,0,1,4.68,3A8.34,8.34,0,0,1,75,10.12ZM70.35,9.4a3.2,3.2,0,0,0-3.16-2.2c-3.51,0-5.49,3.64-5.49,7,0,3,1.55,5.81,5,5.81,3.85,0,6.07-4.32,7.94-8.93a6.75,6.75,0,0,0-2.41-.57,3.54,3.54,0,0,1,0,.46,5.19,5.19,0,0,1-3.5,5l-.61-1.46a3.71,3.71,0,0,0,2.45-3.65v-.26a5.28,5.28,0,0,0-4.52,3.71l-1.57-.48C65.09,11.27,67.61,9.72,70.35,9.4Zm9-6.88c-1.24,2-2.14,5.17-3.27,8.3a5.19,5.19,0,0,1,1.53,1.93A100.59,100.59,0,0,1,79.4,2.52Z"/><path class="cls-1" d="M84,15.38c.39,0,1-1,1.81-3,.09,0,.51.13.51.24h0c-.79,2.06-1.42,4.14-2.9,4.14-.85,0-1.19-.46-1.19-1.31,0-1,.85-2.48.85-3.4a2.75,2.75,0,0,0-.51-1.5,65,65,0,0,1-2,6.3l-.5-.25c.5-1.33,1.35-4.46,1.94-6.91A3.57,3.57,0,0,1,81.67,8,7,7,0,0,1,82,5.94l1.37.27a17.25,17.25,0,0,1-.47,2.86c.58.71,1.61,1.46,1.61,2.65s-.83,2.65-.83,3.28C83.72,15.27,83.83,15.38,84,15.38Z"/><path class="cls-1" d="M88.61,4.19A29.29,29.29,0,0,1,88,8.48a5.88,5.88,0,0,0,.7,0l-.16.85a6.4,6.4,0,0,1-.74,0c-.16.68-.34,1.38-.56,2.12A21.44,21.44,0,0,0,87,14.28c0,.75.13,1.15.36,1.15.49,0,1.19-1.69,1.73-3.08.11,0,.5.16.5.25-1.06,2.88-1.62,4.14-2.79,4.14-.79,0-1.11-1-1.11-2.5a23.27,23.27,0,0,1,.61-4.93,6.43,6.43,0,0,1-.79,0l.12-.85.81,0c.24-1.24.47-2.45.88-4.27Z"/></svg>