<?xml version="1.0" encoding="utf-8"?>
<svg xmlns="http://www.w3.org/2000/svg" xmlns:xlink="http://www.w3.org/1999/xlink" style="margin: auto; background: none; display: block; shape-rendering: auto;" width="154px" height="154px" viewBox="0 0 100 100" preserveAspectRatio="xMidYMid">
<g transform="rotate(0 50 50)">
  <rect x="46.5" y="17" rx="3.5" ry="5.32" width="7" height="14" fill="#eca1a1">
    <animate attributeName="opacity" values="1;0" keyTimes="0;1" dur="1.408450704225352s" begin="-1.3943661971830983s" repeatCount="indefinite"></animate>
  </rect>
</g><g transform="rotate(3.6 50 50)">
  <rect x="46.5" y="17" rx="3.5" ry="5.32" width="7" height="14" fill="#eca1a1">
    <animate attributeName="opacity" values="1;0" keyTimes="0;1" dur="1.408450704225352s" begin="-1.3802816901408448s" repeatCount="indefinite"></animate>
  </rect>
</g><g transform="rotate(7.2 50 50)">
  <rect x="46.5" y="17" rx="3.5" ry="5.32" width="7" height="14" fill="#eca1a1">
    <animate attributeName="opacity" values="1;0" keyTimes="0;1" dur="1.408450704225352s" begin="-1.3661971830985913s" repeatCount="indefinite"></animate>
  </rect>
</g><g transform="rotate(10.8 50 50)">
  <rect x="46.5" y="17" rx="3.5" ry="5.32" width="7" height="14" fill="#eca1a1">
    <animate attributeName="opacity" values="1;0" keyTimes="0;1" dur="1.408450704225352s" begin="-1.3521126760563378s" repeatCount="indefinite"></animate>
  </rect>
</g><g transform="rotate(14.4 50 50)">
  <rect x="46.5" y="17" rx="3.5" ry="5.32" width="7" height="14" fill="#eca1a1">
    <animate attributeName="opacity" values="1;0" keyTimes="0;1" dur="1.408450704225352s" begin="-1.3380281690140843s" repeatCount="indefinite"></animate>
  </rect>
</g><g transform="rotate(18 50 50)">
  <rect x="46.5" y="17" rx="3.5" ry="5.32" width="7" height="14" fill="#eca1a1">
    <animate attributeName="opacity" values="1;0" keyTimes="0;1" dur="1.408450704225352s" begin="-1.3239436619718308s" repeatCount="indefinite"></animate>
  </rect>
</g><g transform="rotate(21.6 50 50)">
  <rect x="46.5" y="17" rx="3.5" ry="5.32" width="7" height="14" fill="#eca1a1">
    <animate attributeName="opacity" values="1;0" keyTimes="0;1" dur="1.408450704225352s" begin="-1.3098591549295773s" repeatCount="indefinite"></animate>
  </rect>
</g><g transform="rotate(25.2 50 50)">
  <rect x="46.5" y="17" rx="3.5" ry="5.32" width="7" height="14" fill="#eca1a1">
    <animate attributeName="opacity" values="1;0" keyTimes="0;1" dur="1.408450704225352s" begin="-1.2957746478873238s" repeatCount="indefinite"></animate>
  </rect>
</g><g transform="rotate(28.8 50 50)">
  <rect x="46.5" y="17" rx="3.5" ry="5.32" width="7" height="14" fill="#eca1a1">
    <animate attributeName="opacity" values="1;0" keyTimes="0;1" dur="1.408450704225352s" begin="-1.2816901408450703s" repeatCount="indefinite"></animate>
  </rect>
</g><g transform="rotate(32.4 50 50)">
  <rect x="46.5" y="17" rx="3.5" ry="5.32" width="7" height="14" fill="#eca1a1">
    <animate attributeName="opacity" values="1;0" keyTimes="0;1" dur="1.408450704225352s" begin="-1.2676056338028165s" repeatCount="indefinite"></animate>
  </rect>
</g><g transform="rotate(36 50 50)">
  <rect x="46.5" y="17" rx="3.5" ry="5.32" width="7" height="14" fill="#eca1a1">
    <animate attributeName="opacity" values="1;0" keyTimes="0;1" dur="1.408450704225352s" begin="-1.253521126760563s" repeatCount="indefinite"></animate>
  </rect>
</g><g transform="rotate(39.6 50 50)">
  <rect x="46.5" y="17" rx="3.5" ry="5.32" width="7" height="14" fill="#eca1a1">
    <animate attributeName="opacity" values="1;0" keyTimes="0;1" dur="1.408450704225352s" begin="-1.2394366197183095s" repeatCount="indefinite"></animate>
  </rect>
</g><g transform="rotate(43.2 50 50)">
  <rect x="46.5" y="17" rx="3.5" ry="5.32" width="7" height="14" fill="#eca1a1">
    <animate attributeName="opacity" values="1;0" keyTimes="0;1" dur="1.408450704225352s" begin="-1.225352112676056s" repeatCount="indefinite"></animate>
  </rect>
</g><g transform="rotate(46.8 50 50)">
  <rect x="46.5" y="17" rx="3.5" ry="5.32" width="7" height="14" fill="#eca1a1">
    <animate attributeName="opacity" values="1;0" keyTimes="0;1" dur="1.408450704225352s" begin="-1.2112676056338025s" repeatCount="indefinite"></animate>
  </rect>
</g><g transform="rotate(50.4 50 50)">
  <rect x="46.5" y="17" rx="3.5" ry="5.32" width="7" height="14" fill="#eca1a1">
    <animate attributeName="opacity" values="1;0" keyTimes="0;1" dur="1.408450704225352s" begin="-1.197183098591549s" repeatCount="indefinite"></animate>
  </rect>
</g><g transform="rotate(54 50 50)">
  <rect x="46.5" y="17" rx="3.5" ry="5.32" width="7" height="14" fill="#eca1a1">
    <animate attributeName="opacity" values="1;0" keyTimes="0;1" dur="1.408450704225352s" begin="-1.1830985915492955s" repeatCount="indefinite"></animate>
  </rect>
</g><g transform="rotate(57.6 50 50)">
  <rect x="46.5" y="17" rx="3.5" ry="5.32" width="7" height="14" fill="#eca1a1">
    <animate attributeName="opacity" values="1;0" keyTimes="0;1" dur="1.408450704225352s" begin="-1.169014084507042s" repeatCount="indefinite"></animate>
  </rect>
</g><g transform="rotate(61.2 50 50)">
  <rect x="46.5" y="17" rx="3.5" ry="5.32" width="7" height="14" fill="#eca1a1">
    <animate attributeName="opacity" values="1;0" keyTimes="0;1" dur="1.408450704225352s" begin="-1.1549295774647885s" repeatCount="indefinite"></animate>
  </rect>
</g><g transform="rotate(64.8 50 50)">
  <rect x="46.5" y="17" rx="3.5" ry="5.32" width="7" height="14" fill="#eca1a1">
    <animate attributeName="opacity" values="1;0" keyTimes="0;1" dur="1.408450704225352s" begin="-1.140845070422535s" repeatCount="indefinite"></animate>
  </rect>
</g><g transform="rotate(68.4 50 50)">
  <rect x="46.5" y="17" rx="3.5" ry="5.32" width="7" height="14" fill="#eca1a1">
    <animate attributeName="opacity" values="1;0" keyTimes="0;1" dur="1.408450704225352s" begin="-1.1267605633802815s" repeatCount="indefinite"></animate>
  </rect>
</g><g transform="rotate(72 50 50)">
  <rect x="46.5" y="17" rx="3.5" ry="5.32" width="7" height="14" fill="#eca1a1">
    <animate attributeName="opacity" values="1;0" keyTimes="0;1" dur="1.408450704225352s" begin="-1.112676056338028s" repeatCount="indefinite"></animate>
  </rect>
</g><g transform="rotate(75.6 50 50)">
  <rect x="46.5" y="17" rx="3.5" ry="5.32" width="7" height="14" fill="#eca1a1">
    <animate attributeName="opacity" values="1;0" keyTimes="0;1" dur="1.408450704225352s" begin="-1.0985915492957745s" repeatCount="indefinite"></animate>
  </rect>
</g><g transform="rotate(79.2 50 50)">
  <rect x="46.5" y="17" rx="3.5" ry="5.32" width="7" height="14" fill="#eca1a1">
    <animate attributeName="opacity" values="1;0" keyTimes="0;1" dur="1.408450704225352s" begin="-1.084507042253521s" repeatCount="indefinite"></animate>
  </rect>
</g><g transform="rotate(82.8 50 50)">
  <rect x="46.5" y="17" rx="3.5" ry="5.32" width="7" height="14" fill="#eca1a1">
    <animate attributeName="opacity" values="1;0" keyTimes="0;1" dur="1.408450704225352s" begin="-1.0704225352112673s" repeatCount="indefinite"></animate>
  </rect>
</g><g transform="rotate(86.4 50 50)">
  <rect x="46.5" y="17" rx="3.5" ry="5.32" width="7" height="14" fill="#eca1a1">
    <animate attributeName="opacity" values="1;0" keyTimes="0;1" dur="1.408450704225352s" begin="-1.0563380281690138s" repeatCount="indefinite"></animate>
  </rect>
</g><g transform="rotate(90 50 50)">
  <rect x="46.5" y="17" rx="3.5" ry="5.32" width="7" height="14" fill="#eca1a1">
    <animate attributeName="opacity" values="1;0" keyTimes="0;1" dur="1.408450704225352s" begin="-1.0422535211267603s" repeatCount="indefinite"></animate>
  </rect>
</g><g transform="rotate(93.6 50 50)">
  <rect x="46.5" y="17" rx="3.5" ry="5.32" width="7" height="14" fill="#eca1a1">
    <animate attributeName="opacity" values="1;0" keyTimes="0;1" dur="1.408450704225352s" begin="-1.0281690140845068s" repeatCount="indefinite"></animate>
  </rect>
</g><g transform="rotate(97.2 50 50)">
  <rect x="46.5" y="17" rx="3.5" ry="5.32" width="7" height="14" fill="#eca1a1">
    <animate attributeName="opacity" values="1;0" keyTimes="0;1" dur="1.408450704225352s" begin="-1.0140845070422533s" repeatCount="indefinite"></animate>
  </rect>
</g><g transform="rotate(100.8 50 50)">
  <rect x="46.5" y="17" rx="3.5" ry="5.32" width="7" height="14" fill="#eca1a1">
    <animate attributeName="opacity" values="1;0" keyTimes="0;1" dur="1.408450704225352s" begin="-0.9999999999999998s" repeatCount="indefinite"></animate>
  </rect>
</g><g transform="rotate(104.4 50 50)">
  <rect x="46.5" y="17" rx="3.5" ry="5.32" width="7" height="14" fill="#eca1a1">
    <animate attributeName="opacity" values="1;0" keyTimes="0;1" dur="1.408450704225352s" begin="-0.9859154929577463s" repeatCount="indefinite"></animate>
  </rect>
</g><g transform="rotate(108 50 50)">
  <rect x="46.5" y="17" rx="3.5" ry="5.32" width="7" height="14" fill="#eca1a1">
    <animate attributeName="opacity" values="1;0" keyTimes="0;1" dur="1.408450704225352s" begin="-0.9718309859154928s" repeatCount="indefinite"></animate>
  </rect>
</g><g transform="rotate(111.6 50 50)">
  <rect x="46.5" y="17" rx="3.5" ry="5.32" width="7" height="14" fill="#eca1a1">
    <animate attributeName="opacity" values="1;0" keyTimes="0;1" dur="1.408450704225352s" begin="-0.9577464788732393s" repeatCount="indefinite"></animate>
  </rect>
</g><g transform="rotate(115.2 50 50)">
  <rect x="46.5" y="17" rx="3.5" ry="5.32" width="7" height="14" fill="#eca1a1">
    <animate attributeName="opacity" values="1;0" keyTimes="0;1" dur="1.408450704225352s" begin="-0.9436619718309858s" repeatCount="indefinite"></animate>
  </rect>
</g><g transform="rotate(118.8 50 50)">
  <rect x="46.5" y="17" rx="3.5" ry="5.32" width="7" height="14" fill="#eca1a1">
    <animate attributeName="opacity" values="1;0" keyTimes="0;1" dur="1.408450704225352s" begin="-0.9295774647887322s" repeatCount="indefinite"></animate>
  </rect>
</g><g transform="rotate(122.4 50 50)">
  <rect x="46.5" y="17" rx="3.5" ry="5.32" width="7" height="14" fill="#eca1a1">
    <animate attributeName="opacity" values="1;0" keyTimes="0;1" dur="1.408450704225352s" begin="-0.9154929577464787s" repeatCount="indefinite"></animate>
  </rect>
</g><g transform="rotate(126 50 50)">
  <rect x="46.5" y="17" rx="3.5" ry="5.32" width="7" height="14" fill="#eca1a1">
    <animate attributeName="opacity" values="1;0" keyTimes="0;1" dur="1.408450704225352s" begin="-0.9014084507042252s" repeatCount="indefinite"></animate>
  </rect>
</g><g transform="rotate(129.6 50 50)">
  <rect x="46.5" y="17" rx="3.5" ry="5.32" width="7" height="14" fill="#eca1a1">
    <animate attributeName="opacity" values="1;0" keyTimes="0;1" dur="1.408450704225352s" begin="-0.8873239436619716s" repeatCount="indefinite"></animate>
  </rect>
</g><g transform="rotate(133.2 50 50)">
  <rect x="46.5" y="17" rx="3.5" ry="5.32" width="7" height="14" fill="#eca1a1">
    <animate attributeName="opacity" values="1;0" keyTimes="0;1" dur="1.408450704225352s" begin="-0.8732394366197181s" repeatCount="indefinite"></animate>
  </rect>
</g><g transform="rotate(136.8 50 50)">
  <rect x="46.5" y="17" rx="3.5" ry="5.32" width="7" height="14" fill="#eca1a1">
    <animate attributeName="opacity" values="1;0" keyTimes="0;1" dur="1.408450704225352s" begin="-0.8591549295774646s" repeatCount="indefinite"></animate>
  </rect>
</g><g transform="rotate(140.4 50 50)">
  <rect x="46.5" y="17" rx="3.5" ry="5.32" width="7" height="14" fill="#eca1a1">
    <animate attributeName="opacity" values="1;0" keyTimes="0;1" dur="1.408450704225352s" begin="-0.8450704225352111s" repeatCount="indefinite"></animate>
  </rect>
</g><g transform="rotate(144 50 50)">
  <rect x="46.5" y="17" rx="3.5" ry="5.32" width="7" height="14" fill="#eca1a1">
    <animate attributeName="opacity" values="1;0" keyTimes="0;1" dur="1.408450704225352s" begin="-0.8309859154929575s" repeatCount="indefinite"></animate>
  </rect>
</g><g transform="rotate(147.6 50 50)">
  <rect x="46.5" y="17" rx="3.5" ry="5.32" width="7" height="14" fill="#eca1a1">
    <animate attributeName="opacity" values="1;0" keyTimes="0;1" dur="1.408450704225352s" begin="-0.816901408450704s" repeatCount="indefinite"></animate>
  </rect>
</g><g transform="rotate(151.2 50 50)">
  <rect x="46.5" y="17" rx="3.5" ry="5.32" width="7" height="14" fill="#eca1a1">
    <animate attributeName="opacity" values="1;0" keyTimes="0;1" dur="1.408450704225352s" begin="-0.8028169014084505s" repeatCount="indefinite"></animate>
  </rect>
</g><g transform="rotate(154.8 50 50)">
  <rect x="46.5" y="17" rx="3.5" ry="5.32" width="7" height="14" fill="#eca1a1">
    <animate attributeName="opacity" values="1;0" keyTimes="0;1" dur="1.408450704225352s" begin="-0.788732394366197s" repeatCount="indefinite"></animate>
  </rect>
</g><g transform="rotate(158.4 50 50)">
  <rect x="46.5" y="17" rx="3.5" ry="5.32" width="7" height="14" fill="#eca1a1">
    <animate attributeName="opacity" values="1;0" keyTimes="0;1" dur="1.408450704225352s" begin="-0.7746478873239435s" repeatCount="indefinite"></animate>
  </rect>
</g><g transform="rotate(162 50 50)">
  <rect x="46.5" y="17" rx="3.5" ry="5.32" width="7" height="14" fill="#eca1a1">
    <animate attributeName="opacity" values="1;0" keyTimes="0;1" dur="1.408450704225352s" begin="-0.76056338028169s" repeatCount="indefinite"></animate>
  </rect>
</g><g transform="rotate(165.6 50 50)">
  <rect x="46.5" y="17" rx="3.5" ry="5.32" width="7" height="14" fill="#eca1a1">
    <animate attributeName="opacity" values="1;0" keyTimes="0;1" dur="1.408450704225352s" begin="-0.7464788732394365s" repeatCount="indefinite"></animate>
  </rect>
</g><g transform="rotate(169.2 50 50)">
  <rect x="46.5" y="17" rx="3.5" ry="5.32" width="7" height="14" fill="#eca1a1">
    <animate attributeName="opacity" values="1;0" keyTimes="0;1" dur="1.408450704225352s" begin="-0.7323943661971829s" repeatCount="indefinite"></animate>
  </rect>
</g><g transform="rotate(172.8 50 50)">
  <rect x="46.5" y="17" rx="3.5" ry="5.32" width="7" height="14" fill="#eca1a1">
    <animate attributeName="opacity" values="1;0" keyTimes="0;1" dur="1.408450704225352s" begin="-0.7183098591549294s" repeatCount="indefinite"></animate>
  </rect>
</g><g transform="rotate(176.4 50 50)">
  <rect x="46.5" y="17" rx="3.5" ry="5.32" width="7" height="14" fill="#eca1a1">
    <animate attributeName="opacity" values="1;0" keyTimes="0;1" dur="1.408450704225352s" begin="-0.7042253521126759s" repeatCount="indefinite"></animate>
  </rect>
</g><g transform="rotate(180 50 50)">
  <rect x="46.5" y="17" rx="3.5" ry="5.32" width="7" height="14" fill="#eca1a1">
    <animate attributeName="opacity" values="1;0" keyTimes="0;1" dur="1.408450704225352s" begin="-0.6901408450704224s" repeatCount="indefinite"></animate>
  </rect>
</g><g transform="rotate(183.6 50 50)">
  <rect x="46.5" y="17" rx="3.5" ry="5.32" width="7" height="14" fill="#eca1a1">
    <animate attributeName="opacity" values="1;0" keyTimes="0;1" dur="1.408450704225352s" begin="-0.6760563380281689s" repeatCount="indefinite"></animate>
  </rect>
</g><g transform="rotate(187.2 50 50)">
  <rect x="46.5" y="17" rx="3.5" ry="5.32" width="7" height="14" fill="#eca1a1">
    <animate attributeName="opacity" values="1;0" keyTimes="0;1" dur="1.408450704225352s" begin="-0.6619718309859154s" repeatCount="indefinite"></animate>
  </rect>
</g><g transform="rotate(190.8 50 50)">
  <rect x="46.5" y="17" rx="3.5" ry="5.32" width="7" height="14" fill="#eca1a1">
    <animate attributeName="opacity" values="1;0" keyTimes="0;1" dur="1.408450704225352s" begin="-0.6478873239436619s" repeatCount="indefinite"></animate>
  </rect>
</g><g transform="rotate(194.4 50 50)">
  <rect x="46.5" y="17" rx="3.5" ry="5.32" width="7" height="14" fill="#eca1a1">
    <animate attributeName="opacity" values="1;0" keyTimes="0;1" dur="1.408450704225352s" begin="-0.6338028169014083s" repeatCount="indefinite"></animate>
  </rect>
</g><g transform="rotate(198 50 50)">
  <rect x="46.5" y="17" rx="3.5" ry="5.32" width="7" height="14" fill="#eca1a1">
    <animate attributeName="opacity" values="1;0" keyTimes="0;1" dur="1.408450704225352s" begin="-0.6197183098591548s" repeatCount="indefinite"></animate>
  </rect>
</g><g transform="rotate(201.6 50 50)">
  <rect x="46.5" y="17" rx="3.5" ry="5.32" width="7" height="14" fill="#eca1a1">
    <animate attributeName="opacity" values="1;0" keyTimes="0;1" dur="1.408450704225352s" begin="-0.6056338028169013s" repeatCount="indefinite"></animate>
  </rect>
</g><g transform="rotate(205.2 50 50)">
  <rect x="46.5" y="17" rx="3.5" ry="5.32" width="7" height="14" fill="#eca1a1">
    <animate attributeName="opacity" values="1;0" keyTimes="0;1" dur="1.408450704225352s" begin="-0.5915492957746478s" repeatCount="indefinite"></animate>
  </rect>
</g><g transform="rotate(208.8 50 50)">
  <rect x="46.5" y="17" rx="3.5" ry="5.32" width="7" height="14" fill="#eca1a1">
    <animate attributeName="opacity" values="1;0" keyTimes="0;1" dur="1.408450704225352s" begin="-0.5774647887323943s" repeatCount="indefinite"></animate>
  </rect>
</g><g transform="rotate(212.4 50 50)">
  <rect x="46.5" y="17" rx="3.5" ry="5.32" width="7" height="14" fill="#eca1a1">
    <animate attributeName="opacity" values="1;0" keyTimes="0;1" dur="1.408450704225352s" begin="-0.5633802816901408s" repeatCount="indefinite"></animate>
  </rect>
</g><g transform="rotate(216 50 50)">
  <rect x="46.5" y="17" rx="3.5" ry="5.32" width="7" height="14" fill="#eca1a1">
    <animate attributeName="opacity" values="1;0" keyTimes="0;1" dur="1.408450704225352s" begin="-0.5492957746478873s" repeatCount="indefinite"></animate>
  </rect>
</g><g transform="rotate(219.6 50 50)">
  <rect x="46.5" y="17" rx="3.5" ry="5.32" width="7" height="14" fill="#eca1a1">
    <animate attributeName="opacity" values="1;0" keyTimes="0;1" dur="1.408450704225352s" begin="-0.5352112676056336s" repeatCount="indefinite"></animate>
  </rect>
</g><g transform="rotate(223.2 50 50)">
  <rect x="46.5" y="17" rx="3.5" ry="5.32" width="7" height="14" fill="#eca1a1">
    <animate attributeName="opacity" values="1;0" keyTimes="0;1" dur="1.408450704225352s" begin="-0.5211267605633801s" repeatCount="indefinite"></animate>
  </rect>
</g><g transform="rotate(226.8 50 50)">
  <rect x="46.5" y="17" rx="3.5" ry="5.32" width="7" height="14" fill="#eca1a1">
    <animate attributeName="opacity" values="1;0" keyTimes="0;1" dur="1.408450704225352s" begin="-0.5070422535211266s" repeatCount="indefinite"></animate>
  </rect>
</g><g transform="rotate(230.4 50 50)">
  <rect x="46.5" y="17" rx="3.5" ry="5.32" width="7" height="14" fill="#eca1a1">
    <animate attributeName="opacity" values="1;0" keyTimes="0;1" dur="1.408450704225352s" begin="-0.49295774647887314s" repeatCount="indefinite"></animate>
  </rect>
</g><g transform="rotate(234 50 50)">
  <rect x="46.5" y="17" rx="3.5" ry="5.32" width="7" height="14" fill="#eca1a1">
    <animate attributeName="opacity" values="1;0" keyTimes="0;1" dur="1.408450704225352s" begin="-0.47887323943661964s" repeatCount="indefinite"></animate>
  </rect>
</g><g transform="rotate(237.6 50 50)">
  <rect x="46.5" y="17" rx="3.5" ry="5.32" width="7" height="14" fill="#eca1a1">
    <animate attributeName="opacity" values="1;0" keyTimes="0;1" dur="1.408450704225352s" begin="-0.4647887323943661s" repeatCount="indefinite"></animate>
  </rect>
</g><g transform="rotate(241.2 50 50)">
  <rect x="46.5" y="17" rx="3.5" ry="5.32" width="7" height="14" fill="#eca1a1">
    <animate attributeName="opacity" values="1;0" keyTimes="0;1" dur="1.408450704225352s" begin="-0.4507042253521126s" repeatCount="indefinite"></animate>
  </rect>
</g><g transform="rotate(244.8 50 50)">
  <rect x="46.5" y="17" rx="3.5" ry="5.32" width="7" height="14" fill="#eca1a1">
    <animate attributeName="opacity" values="1;0" keyTimes="0;1" dur="1.408450704225352s" begin="-0.4366197183098591s" repeatCount="indefinite"></animate>
  </rect>
</g><g transform="rotate(248.4 50 50)">
  <rect x="46.5" y="17" rx="3.5" ry="5.32" width="7" height="14" fill="#eca1a1">
    <animate attributeName="opacity" values="1;0" keyTimes="0;1" dur="1.408450704225352s" begin="-0.42253521126760557s" repeatCount="indefinite"></animate>
  </rect>
</g><g transform="rotate(252 50 50)">
  <rect x="46.5" y="17" rx="3.5" ry="5.32" width="7" height="14" fill="#eca1a1">
    <animate attributeName="opacity" values="1;0" keyTimes="0;1" dur="1.408450704225352s" begin="-0.408450704225352s" repeatCount="indefinite"></animate>
  </rect>
</g><g transform="rotate(255.6 50 50)">
  <rect x="46.5" y="17" rx="3.5" ry="5.32" width="7" height="14" fill="#eca1a1">
    <animate attributeName="opacity" values="1;0" keyTimes="0;1" dur="1.408450704225352s" begin="-0.3943661971830985s" repeatCount="indefinite"></animate>
  </rect>
</g><g transform="rotate(259.2 50 50)">
  <rect x="46.5" y="17" rx="3.5" ry="5.32" width="7" height="14" fill="#eca1a1">
    <animate attributeName="opacity" values="1;0" keyTimes="0;1" dur="1.408450704225352s" begin="-0.380281690140845s" repeatCount="indefinite"></animate>
  </rect>
</g><g transform="rotate(262.8 50 50)">
  <rect x="46.5" y="17" rx="3.5" ry="5.32" width="7" height="14" fill="#eca1a1">
    <animate attributeName="opacity" values="1;0" keyTimes="0;1" dur="1.408450704225352s" begin="-0.36619718309859145s" repeatCount="indefinite"></animate>
  </rect>
</g><g transform="rotate(266.4 50 50)">
  <rect x="46.5" y="17" rx="3.5" ry="5.32" width="7" height="14" fill="#eca1a1">
    <animate attributeName="opacity" values="1;0" keyTimes="0;1" dur="1.408450704225352s" begin="-0.35211267605633795s" repeatCount="indefinite"></animate>
  </rect>
</g><g transform="rotate(270 50 50)">
  <rect x="46.5" y="17" rx="3.5" ry="5.32" width="7" height="14" fill="#eca1a1">
    <animate attributeName="opacity" values="1;0" keyTimes="0;1" dur="1.408450704225352s" begin="-0.33802816901408445s" repeatCount="indefinite"></animate>
  </rect>
</g><g transform="rotate(273.6 50 50)">
  <rect x="46.5" y="17" rx="3.5" ry="5.32" width="7" height="14" fill="#eca1a1">
    <animate attributeName="opacity" values="1;0" keyTimes="0;1" dur="1.408450704225352s" begin="-0.32394366197183094s" repeatCount="indefinite"></animate>
  </rect>
</g><g transform="rotate(277.2 50 50)">
  <rect x="46.5" y="17" rx="3.5" ry="5.32" width="7" height="14" fill="#eca1a1">
    <animate attributeName="opacity" values="1;0" keyTimes="0;1" dur="1.408450704225352s" begin="-0.3098591549295774s" repeatCount="indefinite"></animate>
  </rect>
</g><g transform="rotate(280.8 50 50)">
  <rect x="46.5" y="17" rx="3.5" ry="5.32" width="7" height="14" fill="#eca1a1">
    <animate attributeName="opacity" values="1;0" keyTimes="0;1" dur="1.408450704225352s" begin="-0.2957746478873239s" repeatCount="indefinite"></animate>
  </rect>
</g><g transform="rotate(284.4 50 50)">
  <rect x="46.5" y="17" rx="3.5" ry="5.32" width="7" height="14" fill="#eca1a1">
    <animate attributeName="opacity" values="1;0" keyTimes="0;1" dur="1.408450704225352s" begin="-0.2816901408450704s" repeatCount="indefinite"></animate>
  </rect>
</g><g transform="rotate(288 50 50)">
  <rect x="46.5" y="17" rx="3.5" ry="5.32" width="7" height="14" fill="#eca1a1">
    <animate attributeName="opacity" values="1;0" keyTimes="0;1" dur="1.408450704225352s" begin="-0.2676056338028168s" repeatCount="indefinite"></animate>
  </rect>
</g><g transform="rotate(291.6 50 50)">
  <rect x="46.5" y="17" rx="3.5" ry="5.32" width="7" height="14" fill="#eca1a1">
    <animate attributeName="opacity" values="1;0" keyTimes="0;1" dur="1.408450704225352s" begin="-0.2535211267605633s" repeatCount="indefinite"></animate>
  </rect>
</g><g transform="rotate(295.2 50 50)">
  <rect x="46.5" y="17" rx="3.5" ry="5.32" width="7" height="14" fill="#eca1a1">
    <animate attributeName="opacity" values="1;0" keyTimes="0;1" dur="1.408450704225352s" begin="-0.23943661971830982s" repeatCount="indefinite"></animate>
  </rect>
</g><g transform="rotate(298.8 50 50)">
  <rect x="46.5" y="17" rx="3.5" ry="5.32" width="7" height="14" fill="#eca1a1">
    <animate attributeName="opacity" values="1;0" keyTimes="0;1" dur="1.408450704225352s" begin="-0.2253521126760563s" repeatCount="indefinite"></animate>
  </rect>
</g><g transform="rotate(302.4 50 50)">
  <rect x="46.5" y="17" rx="3.5" ry="5.32" width="7" height="14" fill="#eca1a1">
    <animate attributeName="opacity" values="1;0" keyTimes="0;1" dur="1.408450704225352s" begin="-0.21126760563380279s" repeatCount="indefinite"></animate>
  </rect>
</g><g transform="rotate(306 50 50)">
  <rect x="46.5" y="17" rx="3.5" ry="5.32" width="7" height="14" fill="#eca1a1">
    <animate attributeName="opacity" values="1;0" keyTimes="0;1" dur="1.408450704225352s" begin="-0.19718309859154926s" repeatCount="indefinite"></animate>
  </rect>
</g><g transform="rotate(309.6 50 50)">
  <rect x="46.5" y="17" rx="3.5" ry="5.32" width="7" height="14" fill="#eca1a1">
    <animate attributeName="opacity" values="1;0" keyTimes="0;1" dur="1.408450704225352s" begin="-0.18309859154929573s" repeatCount="indefinite"></animate>
  </rect>
</g><g transform="rotate(313.2 50 50)">
  <rect x="46.5" y="17" rx="3.5" ry="5.32" width="7" height="14" fill="#eca1a1">
    <animate attributeName="opacity" values="1;0" keyTimes="0;1" dur="1.408450704225352s" begin="-0.16901408450704222s" repeatCount="indefinite"></animate>
  </rect>
</g><g transform="rotate(316.8 50 50)">
  <rect x="46.5" y="17" rx="3.5" ry="5.32" width="7" height="14" fill="#eca1a1">
    <animate attributeName="opacity" values="1;0" keyTimes="0;1" dur="1.408450704225352s" begin="-0.1549295774647887s" repeatCount="indefinite"></animate>
  </rect>
</g><g transform="rotate(320.4 50 50)">
  <rect x="46.5" y="17" rx="3.5" ry="5.32" width="7" height="14" fill="#eca1a1">
    <animate attributeName="opacity" values="1;0" keyTimes="0;1" dur="1.408450704225352s" begin="-0.1408450704225352s" repeatCount="indefinite"></animate>
  </rect>
</g><g transform="rotate(324 50 50)">
  <rect x="46.5" y="17" rx="3.5" ry="5.32" width="7" height="14" fill="#eca1a1">
    <animate attributeName="opacity" values="1;0" keyTimes="0;1" dur="1.408450704225352s" begin="-0.12676056338028166s" repeatCount="indefinite"></animate>
  </rect>
</g><g transform="rotate(327.6 50 50)">
  <rect x="46.5" y="17" rx="3.5" ry="5.32" width="7" height="14" fill="#eca1a1">
    <animate attributeName="opacity" values="1;0" keyTimes="0;1" dur="1.408450704225352s" begin="-0.11267605633802814s" repeatCount="indefinite"></animate>
  </rect>
</g><g transform="rotate(331.2 50 50)">
  <rect x="46.5" y="17" rx="3.5" ry="5.32" width="7" height="14" fill="#eca1a1">
    <animate attributeName="opacity" values="1;0" keyTimes="0;1" dur="1.408450704225352s" begin="-0.09859154929577463s" repeatCount="indefinite"></animate>
  </rect>
</g><g transform="rotate(334.8 50 50)">
  <rect x="46.5" y="17" rx="3.5" ry="5.32" width="7" height="14" fill="#eca1a1">
    <animate attributeName="opacity" values="1;0" keyTimes="0;1" dur="1.408450704225352s" begin="-0.08450704225352111s" repeatCount="indefinite"></animate>
  </rect>
</g><g transform="rotate(338.4 50 50)">
  <rect x="46.5" y="17" rx="3.5" ry="5.32" width="7" height="14" fill="#eca1a1">
    <animate attributeName="opacity" values="1;0" keyTimes="0;1" dur="1.408450704225352s" begin="-0.0704225352112676s" repeatCount="indefinite"></animate>
  </rect>
</g><g transform="rotate(342 50 50)">
  <rect x="46.5" y="17" rx="3.5" ry="5.32" width="7" height="14" fill="#eca1a1">
    <animate attributeName="opacity" values="1;0" keyTimes="0;1" dur="1.408450704225352s" begin="-0.05633802816901407s" repeatCount="indefinite"></animate>
  </rect>
</g><g transform="rotate(345.6 50 50)">
  <rect x="46.5" y="17" rx="3.5" ry="5.32" width="7" height="14" fill="#eca1a1">
    <animate attributeName="opacity" values="1;0" keyTimes="0;1" dur="1.408450704225352s" begin="-0.042253521126760556s" repeatCount="indefinite"></animate>
  </rect>
</g><g transform="rotate(349.2 50 50)">
  <rect x="46.5" y="17" rx="3.5" ry="5.32" width="7" height="14" fill="#eca1a1">
    <animate attributeName="opacity" values="1;0" keyTimes="0;1" dur="1.408450704225352s" begin="-0.028169014084507036s" repeatCount="indefinite"></animate>
  </rect>
</g><g transform="rotate(352.8 50 50)">
  <rect x="46.5" y="17" rx="3.5" ry="5.32" width="7" height="14" fill="#eca1a1">
    <animate attributeName="opacity" values="1;0" keyTimes="0;1" dur="1.408450704225352s" begin="-0.014084507042253518s" repeatCount="indefinite"></animate>
  </rect>
</g><g transform="rotate(356.4 50 50)">
  <rect x="46.5" y="17" rx="3.5" ry="5.32" width="7" height="14" fill="#eca1a1">
    <animate attributeName="opacity" values="1;0" keyTimes="0;1" dur="1.408450704225352s" begin="0s" repeatCount="indefinite"></animate>
  </rect>
</g>
<!-- [ldio] generated by https://loading.io/ --></svg>